# xmcd
#
# Track frame offsets:
#	150
#	17735
#	44963
#	59982
#	74248
#	88900
#	104847
#	123396
#	139871
#	154875
#	172144
#	187610
#	201790
#	217590
#	232990
#	248111
#	262807
#	275078
#	291049
#	307820
#	322554
#
# Disc length: 4511 seconds
#
# Revision: 2
# Processed by: cddbd v1.5.2PL0 Copyright (c) Steve Scherf et al.
# Submitted via: audiograbber 1.83.01
#
DISCID=3f119d15
DTITLE=Various Artist - So Country 2014 [Disc 1]
DYEAR=2014
DGENRE=Country
TTITLE0=Brad Paisley - The Mona Lisa
TTITLE1=Kenny Chesney - When I See This Bar
TTITLE2=Florida Georgia Line - Stay (Album Version)
TTITLE3=Luke Bryan - That's My Kind Of Night (Album Version)
TTITLE4=Lee Kernaghan - It's Only Country
TTITLE5=The McClymonts - Going Under (Didn't Have To)
TTITLE6=Carrie Underwood - See You Again
TTITLE7=Eli Young Band - Drunk Last Night
TTITLE8=McAlister Kemp - Harder To Tame
TTITLE9=Love And Theft - If You Ever Get Lonely
TTITLE10=The Band Perry - Done (Album Version)
TTITLE11=Chris Young - Aw Naw
TTITLE12=Lee Brice - Parking Lot Party
TTITLE13=Pistol Annies - Hush Hush
TTITLE14=Jake Owen - Days Of Gold
TTITLE15=Sara Evans - Slow Me Down (Single Edit)
TTITLE16=Easton Corbin - All Over The Road (Album Version)
TTITLE17=Craig Campbell - Outta My Head
TTITLE18=Rodney Atkins - Doin' It Right
TTITLE19=The Wolfe Brothers - Lovin' In The Summertime
TTITLE20=Adam Eckersley Band - Long Enough To Disappear
EXTD=
EXTT0=
EXTT1=
EXTT2=
EXTT3=
EXTT4=
EXTT5=
EXTT6=
EXTT7=
EXTT8=
EXTT9=
EXTT10=
EXTT11=
EXTT12=
EXTT13=
EXTT14=
EXTT15=
EXTT16=
EXTT17=
EXTT18=
EXTT19=
EXTT20=
PLAYORDER=
